<svg width="48" height="48" viewBox="0 0 48 48" fill="none" xmlns="http://www.w3.org/2000/svg">
<mask id="mask0_83_118" style="mask-type:alpha" maskUnits="userSpaceOnUse" x="0" y="0" width="48" height="48">
<rect width="48" height="48" fill="#D9D9D9"/>
</mask>
<g mask="url(#mask0_83_118)">
<path d="M6.5 38.55L4.05 20.7C3.88333 19.6333 4.14166 18.6667 4.825 17.8C5.50833 16.9333 6.38333 16.4167 7.45 16.25L10.5 38L24.65 36H38C37.7333 36.7 37.325 37.2917 36.775 37.775C36.225 38.2583 35.55 38.55 34.75 38.65L10.9 41.95C9.8 42.1167 8.83333 41.8667 8 41.2C7.16666 40.5333 6.66666 39.65 6.5 38.55ZM16 32.2C14.9 32.2 13.9583 31.8083 13.175 31.025C12.3917 30.2417 12 29.3 12 28.2V10C12 8.9 12.3917 7.95833 13.175 7.175C13.9583 6.39167 14.9 6 16 6H40C41.1 6 42.0417 6.39167 42.825 7.175C43.6083 7.95833 44 8.9 44 10V28.2C44 29.3 43.6083 30.2417 42.825 31.025C42.0417 31.8083 41.1 32.2 40 32.2H16ZM16 28.2H40V10H16V28.2ZM20 18H36V14H20V18ZM20 24H30V20H20V24Z" fill="#71747C"/>
</g>
</svg>
