<svg
  width="50"
  height="73"
  viewBox="0 0 50 73"
  fill="none"
  xmlns="http://www.w3.org/2000/svg"
>
  <g clip-path="url(#clip0_9232_20312)">
    <path
      d="M30.3229 0C30.5755 0.945312 30.7734 1.93229 30.9427 2.95052C31.112 3.97917 31.2266 5.04948 31.3203 6.16406C31.4141 7.28646 31.4766 8.45312 31.5313 9.66146C31.5729 10.8802 31.6042 12.151 31.625 13.4635C31.6771 16.4974 31.4453 18.9557 31.0469 20.9922C30.638 23.1016 30.0495 24.7604 29.3984 26.1589C28.737 27.5964 28.013 28.7422 27.3724 29.8437C26.7109 30.9661 26.1328 32.0182 25.776 33.2448C25.7656 33.276 25.7552 33.3073 25.7344 33.3385C25.724 33.3698 25.7031 33.401 25.6927 33.4323C25.6823 33.4635 25.6719 33.4948 25.651 33.526C25.6406 33.5573 25.6302 33.5885 25.6094 33.6198L32.8229 30.1536V30.1432C33.1901 27.8333 33.4323 25.6693 33.5573 23.6432C33.6823 21.6797 33.7135 19.8411 33.6823 18.1302C33.651 16.4609 33.5469 14.9062 33.4089 13.4792C33.2734 12.0729 33.0937 10.7812 32.8932 9.61458C32.7474 8.73177 32.5781 7.86198 32.388 7.02083C32.1979 6.17969 32 5.36198 31.7786 4.5651C31.5573 3.76823 31.3281 2.98958 31.0755 2.23437C30.8594 1.44792 30.5964 0.713542 30.3229 0Z"
      fill="#494C4F"
    />
    <path
      d="M27.2995 48.9922L27.3932 49.3698C27.487 49.8203 27.4766 50.2526 27.3828 50.6406C27.2891 51.0182 27.1198 51.3542 26.888 51.6276C26.6667 51.8906 26.3932 52.0989 26.0807 52.2266C25.776 52.3516 25.4401 52.4167 25.0833 52.3958C24.737 52.375 24.3906 52.2917 24.0547 52.1432C23.7292 52.0078 23.4245 51.8073 23.1406 51.5755C22.8568 51.3437 22.6042 51.0703 22.3854 50.7682C22.1641 50.4635 21.987 50.1172 21.8594 49.7604C21.849 49.7396 21.8385 49.7187 21.8385 49.6979C21.8281 49.6771 21.8281 49.6562 21.8177 49.6354C21.8073 49.6146 21.8073 49.5937 21.7969 49.5729C21.7865 49.5521 21.7865 49.5312 21.776 49.5104C21.776 49.5104 21.776 49.5 21.7656 49.5V49.4896C21.7656 49.4896 21.7656 49.4792 21.7552 49.4792V49.4687C21.8698 49.5417 21.9974 49.6146 22.1016 49.6901C22.2161 49.7734 22.3333 49.8594 22.4271 49.9531C22.5312 50.0469 22.6276 50.1536 22.7005 50.2682C22.7734 50.3828 22.8359 50.5104 22.8906 50.6458C22.8906 50.6667 22.901 50.6875 22.9115 50.6979C22.9219 50.7187 22.9219 50.7396 22.9219 50.75C22.9219 50.7708 22.9323 50.7812 22.9323 50.8021C22.9323 50.8229 22.9427 50.8333 22.9427 50.8542C23.0885 50.9792 23.237 51.1068 23.3932 51.2213C23.5495 51.3359 23.7083 51.4427 23.8646 51.5364C24.0208 51.6302 24.1901 51.7057 24.3698 51.7578C24.5495 51.8099 24.7266 51.8516 24.9062 51.8516C25.0964 51.862 25.2422 51.8307 25.3672 51.7682C25.4922 51.7057 25.599 51.6224 25.6823 51.5052C25.776 51.401 25.8516 51.263 25.9349 51.1276C26.0182 50.9922 26.1042 50.8437 26.1979 50.6979C26.1875 50.6771 26.1771 50.6458 26.1667 50.625C26.1562 50.6042 26.1458 50.5729 26.1354 50.5521C26.125 50.5312 26.1146 50.5 26.1042 50.4792C26.0938 50.4479 26.0937 50.4271 26.0833 50.3958C26.0417 50.25 26.0729 50.1016 26.1354 49.9766C26.1979 49.8516 26.3047 49.7239 26.4297 49.6094C26.5547 49.4948 26.7031 49.388 26.849 49.2838C27.0365 49.1693 27.1849 49.0755 27.2995 48.9922ZM13.2396 31.4167C13.1979 31.4375 13.1667 31.4479 13.125 31.4687C13.0938 31.4896 13.0521 31.5104 13.0208 31.5208C12.9896 31.5417 12.9479 31.5625 12.9167 31.5833C12.8854 31.6042 12.8438 31.625 12.8125 31.6562C12.612 31.7812 12.4349 31.9193 12.2552 32.0547C12.0859 32.1901 11.9193 32.3385 11.7734 32.4948C11.6276 32.6641 11.4792 32.8411 11.3438 33.0521C11.2083 33.263 11.0807 33.513 10.9661 33.7969C11.3021 33.7448 11.6484 33.7448 11.9948 33.7969C12.3411 33.8385 12.6979 33.9427 13.0443 34.0807C13.401 34.2266 13.7578 34.4167 14.1146 34.6484C14.4714 34.8906 14.8385 35.1745 15.1953 35.5L13.7578 31.2474L13.6328 31.2786C13.5911 31.2891 13.5495 31.2995 13.5078 31.3203C13.4661 31.3307 13.4245 31.3516 13.3828 31.362C13.3255 31.3724 13.2812 31.3932 13.2396 31.4167ZM14.4062 31.1745L15.8125 35.3125L18.9531 35.3542C18.6276 34.6927 18.2708 34.1042 17.9036 33.5911C17.5365 33.0755 17.1589 32.6458 16.7708 32.2891C16.3828 31.9323 15.9948 31.6588 15.5937 31.4713C15.1927 31.2995 14.7943 31.1953 14.4062 31.1745ZM16.263 36.6224C16.7448 37.1901 17.2188 37.8516 17.6797 38.5755C18.1406 39.3099 18.5937 40.1198 19.013 41C19.4427 41.8932 19.8542 42.8594 20.2318 43.8776C20.6094 44.9167 20.9661 46.0078 21.2812 47.1641C21.3021 46.6588 21.3125 46.1458 21.3021 45.6198C21.2917 45.0937 21.2708 44.5599 21.2188 44.0234C21.1771 43.4766 21.1146 42.9323 21.0391 42.3854C20.9635 41.8385 20.8698 41.2838 20.7552 40.737C20.6823 40.3698 20.599 40.0026 20.513 39.6562C20.4297 39.2995 20.3333 38.9635 20.2292 38.6276C20.1354 38.2917 20.0286 37.9661 19.9141 37.651C19.8099 37.3359 19.6927 37.0312 19.5677 36.737L16.263 36.6224ZM9.16667 6.15364C9.26042 7.0052 9.35677 7.86458 9.47135 8.73697C9.58594 9.60937 9.70312 10.4896 9.83854 11.3828C9.97396 12.276 10.1224 13.1771 10.2786 14.0807C10.4349 14.9948 10.6042 15.9088 10.7839 16.8307C11.0156 18.0391 11.2656 19.224 11.5286 20.3802C11.7917 21.5469 12.0651 22.6797 12.3464 23.7708C12.6302 24.8724 12.9245 25.9557 13.2292 26.9948C13.5339 28.0443 13.849 29.0521 14.1745 30.0286C14.3099 30.0078 14.4583 29.9974 14.5938 29.9974C14.7396 29.9974 14.8776 30.0078 15.0234 30.0391C15.1693 30.0599 15.3073 30.1016 15.4531 30.1432C15.599 30.1849 15.737 30.2474 15.8828 30.3125C15.5573 29.5365 15.2318 28.737 14.9167 27.9088C14.6016 27.0911 14.2865 26.25 13.9818 25.388C13.6771 24.526 13.3828 23.6562 13.099 22.763C12.8151 21.8698 12.5312 20.9687 12.2578 20.0338C11.901 18.8255 11.5755 17.6198 11.2708 16.4219C10.9661 15.2344 10.6823 14.0599 10.4297 12.8932C10.1771 11.737 9.9349 10.5937 9.72656 9.47135C9.51302 8.33593 9.32292 7.23437 9.16667 6.15364ZM37.1068 23.8229C36.9167 23.8542 36.7396 23.8854 36.5495 23.9271C36.3594 23.9687 36.1823 24.0104 36.0026 24.0521C35.8229 24.0937 35.6354 24.1458 35.4557 24.1979C35.276 24.25 35.099 24.3125 34.9193 24.3672L34.3307 29.6172C34.9297 28.9453 35.5495 28.3151 36.1901 27.737C36.8307 27.1588 37.4818 26.6354 38.1641 26.151C38.8359 25.6797 39.5182 25.2474 40.2214 24.8594C40.9141 24.4818 41.6276 24.1458 42.3516 23.862C41.9323 23.737 41.5208 23.6406 41.112 23.5885C40.7031 23.5365 40.2943 23.5156 39.8828 23.5156C39.4635 23.5156 39.0417 23.5469 38.5911 23.599C38.1406 23.651 37.6771 23.7135 37.1745 23.7995H37.112C37.1276 23.8229 37.1172 23.8229 37.1068 23.8229ZM32.6224 31.8047L25 35.5937C24.8958 36.013 24.8099 36.4453 24.737 36.875C24.6641 37.3047 24.6224 37.7474 24.5807 38.1875C24.5495 38.6276 24.5286 39.0807 24.5391 39.5312C24.5495 39.9818 24.5703 40.4349 24.612 40.8958C24.6849 41.5781 24.8021 42.2396 24.9479 42.8802C25.1042 43.5208 25.3047 44.151 25.5365 44.75C25.7786 45.3489 26.0521 45.9271 26.3672 46.4713C26.6823 47.0182 27.0286 47.5312 27.4062 48.0156C27.4375 46.4297 27.5964 44.875 27.8568 43.3646C28.1198 41.8828 28.487 40.4453 28.9479 39.0599C29.3984 37.7057 29.9453 36.4141 30.5651 35.1849C31.1953 33.9974 31.8776 32.8646 32.6224 31.8047ZM8.3776 67.1771C8.3776 68.763 7.22135 70.2109 4.1875 70.2109C1.30208 70.2109 0 68.763 0 66.8828L0.145833 66.737H1.8776L2.02344 66.8828C2.02344 67.8906 2.60156 68.4687 4.33333 68.4687C5.63542 68.4687 6.35938 68.039 6.35938 67.1667C6.35938 66.1588 5.78125 65.8646 3.75521 65.5807C1.73177 65.2864 0.145833 64.5729 0.145833 62.5469C0.145833 61.0989 1.30208 59.7969 4.05208 59.7969C6.80208 59.7969 7.95833 61.0989 7.95833 62.8307L7.8125 62.9766H6.08073L5.9349 62.8307C5.9349 61.9583 5.50521 61.5286 3.90885 61.5286C2.60677 61.5286 2.17708 61.9583 2.17708 62.5364C2.17708 63.4088 2.75521 63.6927 4.78125 63.9844C6.79427 64.2891 8.3776 65.151 8.3776 67.1771ZM16.474 66.4531C16.474 68.763 15.026 70.2109 13.2917 70.2109C11.9896 70.2109 11.4115 69.487 11.4115 69.487H11.2656V72.8151L11.1198 72.9609H9.38802L9.24219 72.8151V62.987L9.38802 62.8411H10.9844L11.1302 62.987L11.276 63.4167H11.4219C11.4219 63.4167 12 62.6927 13.3021 62.6927C15.026 62.6953 16.474 64.1432 16.474 66.4531ZM14.4479 66.4531C14.4479 65.2969 14.0182 64.4271 12.862 64.4271C11.7057 64.4271 11.276 65.2995 11.276 66.4531C11.276 67.6094 11.7057 68.4792 12.862 68.4792C14.0182 68.4792 14.4479 67.6094 14.4479 66.4531ZM21.1042 62.8411C19.8021 62.8411 19.5182 63.4193 19.5182 63.4193H19.3724L19.2266 62.9896L19.0807 62.8437H17.4948L17.349 62.9896V69.9297L17.4948 70.0755H19.2266L19.3724 69.9297V66.4635C19.3724 65.1614 19.8021 64.5833 20.9583 64.5833H21.9661L22.112 64.4375V62.9896L21.9661 62.8437L21.1042 62.8411ZM28.1823 62.8411L28.0365 62.987L26.3047 67.901H26.1589L24.4271 62.987L24.2812 62.8411H22.9792L22.8333 62.987V64.4349L25.1432 70.0729V70.2187C24.9974 70.6484 24.849 70.7969 24.1354 70.7969H23.4115L23.2656 70.9427V72.3906L23.4115 72.5364H24.1354C26.1615 72.5364 26.7396 71.664 27.3177 70.2265L29.6276 64.4401V62.9922L29.4818 62.8463H28.1901L28.1823 62.8411ZM34.974 66.1693L36.7057 64.4375V62.9896L36.5599 62.8437H35.6875L35.3932 62.9896L32.5052 65.8776H32.3594V60.0911L32.2135 59.9453H30.4818L30.3359 60.0911V69.9193L30.4818 70.0651H32.2135L32.3594 69.9193V68.9114L32.5052 68.6172L33.3776 67.7448H33.5234L35.5495 69.9088L35.8438 70.0547H36.7161L36.862 69.9088V68.4609L34.9818 66.2969V66.1719L34.974 66.1693ZM44.224 66.4531V67.0312L44.0781 67.1771H39.5938L39.4479 67.3229C39.4479 67.6172 39.7422 68.4792 40.8958 68.4792C41.3255 68.4792 41.7682 68.3333 41.9036 68.0495L42.0495 67.9036H43.7812L43.9271 68.0495C43.7812 68.9219 43.0547 70.2135 40.8932 70.2135C38.4375 70.2135 37.2812 68.4818 37.2812 66.4557C37.2812 64.4297 38.4375 62.6979 40.7474 62.6979C43.0599 62.6953 44.224 64.4375 44.224 66.4531ZM42.0521 65.5911C42.0521 65.4453 41.9062 64.4349 40.75 64.4349C39.5938 64.4349 39.4479 65.4427 39.4479 65.5911L39.5938 65.737H41.9036L42.0521 65.5911ZM49.8542 62.8411H48.9922C47.6901 62.8411 47.4062 63.4193 47.4062 63.4193H47.2604L47.1146 62.9896L46.9688 62.8437H45.3828L45.237 62.9896V69.9297L45.3828 70.0755H47.1146L47.2604 69.9297V66.4635C47.2604 65.1614 47.6901 64.5833 48.8464 64.5833H49.8542L50 64.4375V62.9896L49.8542 62.8411Z"
      fill="black"
    />
  </g>
  <defs>
    <clipPath id="clip0_9232_20312">
      <rect width="50" height="72.9635" fill="white" />
    </clipPath>
  </defs>
</svg>